<svg width="19" height="10" viewBox="0 0 19 10" fill="none" xmlns="http://www.w3.org/2000/svg">
<path d="M17.6682 0.224199L9.49218 8.19409L1.31616 0.224199C1.17008 0.0815158 0.97398 0.00163574 0.76978 0.00163574C0.56558 0.00163574 0.369482 0.0815158 0.223403 0.224199C0.152672 0.293501 0.0964807 0.376219 0.0581199 0.46751C0.019759 0.558801 0 0.656829 0 0.755852C0 0.854875 0.019759 0.952903 0.0581199 1.04419C0.0964807 1.13548 0.152672 1.2182 0.223403 1.28751L8.92126 9.76779C9.07401 9.91667 9.27887 10 9.49218 10C9.70548 10 9.91035 9.91667 10.0631 9.76779L18.761 1.28914C18.8322 1.21979 18.8888 1.13687 18.9275 1.04527C18.9661 0.953679 18.986 0.85527 18.986 0.755852C18.986 0.656435 18.9661 0.558025 18.9275 0.466431C18.8888 0.374838 18.8322 0.291916 18.761 0.222563C18.6149 0.0798793 18.4188 0 18.2146 0C18.0104 0 17.8143 0.0798793 17.6682 0.222563V0.224199Z" fill="black"/>
</svg>
